HIERARCHY
ROOT Hips
{
  OFFSET 0.0000 0.0000 0.0000
  CHANNELS 6 Xposition Yposition Zposition Zrotation Xrotation Yrotation
  JOINT Chest
  {
    OFFSET -0.1728 10.2870 0.1254
    CHANNELS 3 Zrotation Xrotation Yrotation
    JOINT Chest2
    {
      OFFSET 0.3229 15.8173 -2.6440
      CHANNELS 3 Zrotation Xrotation Yrotation
      JOINT LeftCollar
      {
        OFFSET -0.0683 16.8828 0.2989
        CHANNELS 3 Zrotation Xrotation Yrotation
        JOINT LeftShoulder
        {
          OFFSET 16.0110 -3.0750 2.0528
          CHANNELS 3 Zrotation Xrotation Yrotation
          JOINT LeftElbow
          {
            OFFSET 2.6153 -25.4187 1.7231
            CHANNELS 3 Zrotation Xrotation Yrotation
            JOINT LeftWrist
            {
              OFFSET 2.3595 -22.4741 1.0488
              CHANNELS 3 Zrotation Xrotation Yrotation
              End Site
              {
                  OFFSET 1.4871 -13.9919 1.1523
              }
            }
          }
        }
      }
      JOINT RightCollar
      {
        OFFSET -0.0683 16.8828 0.2989
        CHANNELS 3 Zrotation Xrotation Yrotation
        JOINT RightShoulder
        {
          OFFSET -16.3743 -2.4390 2.0841
          CHANNELS 3 Zrotation Xrotation Yrotation
          JOINT RightElbow
          {
            OFFSET -2.6865 -25.0857 1.2959
            CHANNELS 3 Zrotation Xrotation Yrotation
            JOINT RightWrist
            {
              OFFSET -2.3810 -22.8348 1.0329
              CHANNELS 3 Zrotation Xrotation Yrotation
              End Site
              {
                  OFFSET -1.4652 -14.7234 1.0705
              }
            }
          }
        }
      }
      JOINT Neck
      {
        OFFSET -0.0683 16.8828 0.2989
        CHANNELS 3 Zrotation Xrotation Yrotation
        JOINT Head
        {
          OFFSET 0.1300 11.4121 4.7143
          CHANNELS 3 Zrotation Xrotation Yrotation
          End Site
          {
              OFFSET 0.0452 18.0438 0.3379
          }
        }
      }
    }
  }
  JOINT LeftHip
  {
    OFFSET 9.3186 -0.0408 3.5432
    CHANNELS 3 Zrotation Xrotation Yrotation
    JOINT LeftKnee
    {
      OFFSET -0.5435 -48.8357 0.3144
      CHANNELS 3 Zrotation Xrotation Yrotation
      JOINT LeftAnkle
      {
        OFFSET 0.2027 -38.4920 -4.2946
        CHANNELS 3 Zrotation Xrotation Yrotation
        End Site
        {
            OFFSET 1.1879 -7.4484 17.8063
        }
      }
    }
  }
  JOINT RightHip
  {
    OFFSET -10.0712 -0.0749 3.1483
    CHANNELS 3 Zrotation Xrotation Yrotation
    JOINT RightKnee
    {
      OFFSET 0.3157 -48.5179 0.1055
      CHANNELS 3 Zrotation Xrotation Yrotation
      JOINT RightAnkle
      {
        OFFSET -1.1248 -38.4399 -3.4305
        CHANNELS 3 Zrotation Xrotation Yrotation
        End Site
        {
            OFFSET -1.3336 -7.3741 17.3830
        }
      }
    }
  }
}
MOTION
Frames:	21
Frame Time:	0.033333
16.4247 74.4042 200.0892 -13.20 -4.82 -114.25 2.11 -2.98 1.51 2.17 -3.00 1.56 -0.18 -0.70 0.26 6.99 27.34 -38.57 9.53 -13.73 -1.93 -20.99 -3.18 4.05 -0.01 -0.80 0.01 -24.09 -20.05 14.68 -12.63 -39.42 3.70 -21.82 -27.04 -104.53 -12.40 -10.96 -1.07 -12.07 -3.65 -0.94 -8.79 10.59 28.93 -9.82 65.01 10.62 -8.51 -32.96 19.09 -22.58 -41.96 -53.92 0.63 47.13 -5.30 -24.59 -5.92 -27.17 
13.5722 73.9231 199.4362 -9.40 -4.26 -119.26 4.89 -4.38 1.96 4.94 -4.39 2.01 -0.18 -0.70 0.26 6.76 28.37 -39.95 9.52 -14.06 -1.94 -21.42 -2.90 3.57 -0.01 -0.80 0.01 -24.91 -21.38 11.51 -12.62 -39.54 3.71 -24.52 -26.91 -107.79 -11.14 -12.55 -2.24 -10.66 -5.24 -2.10 -9.12 8.79 28.48 -9.40 65.38 10.31 -7.28 -29.11 18.21 -18.06 -46.24 -51.34 0.92 49.34 -6.02 -27.44 -7.33 -25.79 
10.9008 73.6402 198.7713 -5.51 -4.34 -124.21 7.42 -5.45 2.50 7.48 -5.46 2.56 -0.18 -0.70 0.26 7.11 28.74 -40.99 9.52 -14.10 -1.94 -21.76 -2.22 2.27 -0.01 -0.80 0.01 -25.66 -23.00 8.80 -12.63 -39.37 3.70 -27.43 -26.47 -111.13 -10.00 -13.80 -3.28 -9.40 -6.50 -3.11 -9.47 6.46 28.07 -8.82 65.60 9.81 -6.16 -24.90 17.23 -13.04 -50.36 -47.62 1.18 51.47 -6.56 -29.36 -8.73 -24.81 
8.4254 73.5845 198.1362 -1.71 -5.12 -128.97 9.64 -6.27 3.04 9.70 -6.27 3.10 -0.18 -0.70 0.26 7.92 28.53 -41.74 9.53 -13.93 -1.93 -22.04 -1.33 0.33 -0.01 -0.80 0.01 -26.34 -24.79 6.72 -12.66 -38.90 3.69 -30.25 -25.63 -114.35 -9.01 -14.74 -4.17 -8.30 -7.45 -3.98 -9.83 3.62 27.78 -8.34 65.66 9.43 -5.25 -20.46 16.21 -7.67 -54.16 -42.93 1.40 53.47 -6.86 -30.00 -10.39 -24.19 
6.1307 73.7550 197.5425 1.70 -6.35 -133.45 11.53 -6.68 3.48 11.59 -6.68 3.54 -0.18 -0.70 0.26 9.05 27.78 -42.24 9.53 -13.63 -1.92 -22.28 -0.40 -1.95 -0.01 -0.80 0.01 -27.03 -26.84 5.22 -12.71 -38.10 3.66 -32.59 -24.39 -117.18 -8.16 -15.50 -4.92 -7.35 -8.22 -4.71 -10.19 0.64 27.62 -7.75 65.47 8.93 -4.44 -15.88 15.17 -2.00 -57.27 -37.46 1.59 55.20 -6.96 -29.68 -12.23 -23.68 
3.9839 74.1221 196.9829 4.69 -7.95 -137.61 13.14 -6.84 3.80 13.20 -6.84 3.86 -0.18 -0.70 0.26 10.45 26.64 -42.83 9.54 -13.32 -1.91 -22.47 0.43 -4.14 -0.01 -0.80 0.01 -27.77 -29.01 4.23 -12.78 -36.95 3.63 -34.04 -22.86 -119.36 -7.40 -16.01 -5.49 -6.53 -8.73 -5.27 -10.53 -2.35 27.58 -7.10 64.99 8.38 -3.70 -11.28 14.11 3.91 -59.66 -31.48 1.79 56.50 -6.99 -28.99 -14.00 -23.03 
1.9517 74.6380 196.4467 7.18 -9.66 -141.49 14.50 -6.67 3.96 14.56 -6.67 4.02 -0.18 -0.70 0.26 12.06 25.21 -43.70 9.55 -13.00 -1.90 -22.59 1.10 -5.93 -0.01 -0.80 0.01 -28.64 -31.36 3.48 -12.87 -35.46 3.59 -34.37 -21.27 -120.86 -6.72 -16.35 -5.86 -5.80 -9.07 -5.62 -10.83 -5.14 27.63 -6.32 64.16 7.68 -3.01 -6.73 13.01 9.85 -61.18 -25.39 1.98 57.24 -6.96 -28.27 -15.52 -22.06 
0.0114 75.2499 195.9281 9.33 -11.56 -145.09 15.66 -6.40 4.02 15.72 -6.40 4.09 -0.18 -0.70 0.26 13.88 23.62 -45.10 9.55 -12.71 -1.89 -22.61 1.62 -7.16 -0.01 -0.80 0.01 -29.60 -33.66 2.89 -12.97 -33.66 3.55 -33.60 -19.85 -121.89 -6.08 -16.42 -6.01 -5.14 -9.15 -5.77 -11.10 -7.86 27.70 -5.53 63.07 6.98 -2.41 -2.27 11.87 15.54 -62.12 -19.58 2.15 57.53 -6.91 -27.67 -16.76 -20.77 
-1.8466 75.9105 195.4281 11.13 -13.53 -148.47 16.60 -6.02 4.02 16.66 -6.01 4.09 -0.18 -0.70 0.26 15.89 21.88 -46.93 9.56 -12.41 -1.88 -22.50 2.08 -7.96 -0.01 -0.80 0.01 -30.66 -35.90 2.35 -13.08 -31.62 3.50 -32.02 -18.69 -122.80 -5.45 -16.39 -6.00 -4.51 -9.12 -5.77 -11.35 -10.51 27.74 -4.74 61.76 6.26 -1.88 2.16 10.64 20.76 -62.55 -14.26 2.27 57.43 -6.83 -27.10 -17.77 -19.13 
-3.6233 76.5840 194.9494 12.73 -15.74 -151.60 17.33 -5.69 4.00 17.39 -5.68 4.07 -0.18 -0.70 0.26 18.00 20.02 -49.00 9.57 -12.12 -1.87 -22.25 2.57 -8.62 -0.01 -0.80 0.01 -31.73 -37.86 1.97 -13.19 -29.41 3.46 -30.01 -17.77 -123.87 -4.84 -16.22 -5.88 -3.92 -8.95 -5.65 -11.61 -13.32 27.73 -4.02 60.43 5.60 -1.41 6.65 9.37 25.52 -62.90 -9.36 2.39 57.20 -6.74 -26.53 -18.71 -17.33 
-5.3179 77.2464 194.4934 14.03 -18.06 -154.55 17.83 -5.35 3.98 17.89 -5.34 4.05 -0.18 -0.70 0.26 20.14 18.01 -50.90 9.57 -11.83 -1.86 -21.88 3.23 -9.55 -0.01 -0.80 0.01 -32.77 -39.57 1.81 -13.31 -27.12 3.43 -27.94 -17.01 -125.21 -4.28 -16.10 -5.67 -3.39 -8.82 -5.45 -11.88 -16.20 27.73 -3.32 59.04 4.97 -0.96 11.45 8.21 29.83 -63.13 -4.78 2.51 56.92 -6.63 -25.92 -19.56 -15.46 
-6.9344 77.8839 194.0578 15.06 -20.56 -157.29 18.12 -5.09 3.95 18.17 -5.08 4.02 -0.18 -0.70 0.26 22.19 15.85 -52.33 9.58 -11.53 -1.85 -21.43 4.07 -10.95 -0.01 -0.80 0.01 -33.67 -40.94 1.93 -13.42 -24.85 3.40 -25.98 -16.26 -126.68 -3.81 -16.00 -5.36 -2.95 -8.72 -5.16 -12.18 -19.26 27.79 -2.68 57.63 4.40 -0.53 16.79 7.36 33.80 -63.47 -0.31 2.63 56.70 -6.53 -25.26 -20.35 -13.71 
-8.4838 78.4881 193.6362 15.72 -22.98 -159.88 18.25 -4.76 3.90 18.30 -4.75 3.97 -0.18 -0.70 0.26 24.12 13.48 -53.16 9.58 -11.29 -1.84 -20.93 5.05 -12.78 -0.01 -0.80 0.01 -34.43 -42.11 2.19 -13.52 -22.72 3.37 -24.16 -15.46 -128.03 -3.45 -16.03 -4.97 -2.64 -8.75 -4.78 -12.49 -22.24 28.00 -2.09 56.03 3.85 -0.18 22.91 6.93 37.30 -63.72 3.97 2.75 56.48 -6.43 -24.57 -20.92 -12.11 
-9.9841 79.0508 193.2194 16.02 -25.32 -162.36 18.25 -4.37 3.82 18.30 -4.36 3.89 -0.18 -0.70 0.26 25.84 10.90 -53.46 9.59 -11.06 -1.83 -20.36 6.01 -14.69 -0.01 -0.80 0.01 -35.01 -43.07 2.47 -13.60 -20.80 3.36 -22.40 -14.63 -128.99 -3.23 -16.13 -4.48 -2.48 -8.84 -4.30 -12.83 -25.14 28.30 -1.65 54.19 3.42 -0.03 29.72 6.78 40.33 -64.00 8.00 2.83 56.39 -6.36 -23.85 -21.18 -10.72 
-11.4566 79.5581 192.7945 15.93 -27.38 -164.86 18.21 -3.89 3.74 18.26 -3.88 3.80 -0.18 -0.70 0.26 27.38 8.10 -53.43 9.59 -10.99 -1.83 -19.70 6.76 -16.39 -0.01 -0.80 0.01 -35.45 -43.95 2.62 -13.68 -19.14 3.35 -20.67 -13.83 -129.46 -3.16 -16.27 -3.93 -2.48 -8.97 -3.77 -13.20 -27.63 28.61 -1.30 52.03 3.06 -0.14 36.89 6.62 42.63 -64.16 11.32 2.89 56.35 -6.30 -23.15 -21.15 -9.47 
-12.9213 79.9884 192.3468 15.55 -29.23 -167.44 18.12 -3.35 3.65 18.17 -3.33 3.72 -0.18 -0.70 0.26 28.70 5.14 -53.24 9.59 -10.93 -1.83 -18.90 7.16 -17.74 -0.01 -0.80 0.01 -35.72 -44.69 2.72 -13.74 -17.75 3.34 -18.94 -13.09 -129.46 -3.20 -16.32 -3.35 -2.59 -9.02 -3.20 -13.65 -29.71 28.78 -1.11 49.56 2.80 -0.53 43.75 5.95 44.25 -64.32 13.71 2.89 56.50 -6.29 -22.48 -21.01 -8.39 
-14.3916 80.3154 191.8627 14.90 -30.82 -170.21 18.05 -2.79 3.59 18.10 -2.78 3.65 -0.18 -0.70 0.26 29.85 2.10 -52.95 9.59 -10.94 -1.83 -17.97 7.20 -18.87 -0.01 -0.80 0.01 -35.85 -45.31 2.92 -13.79 -16.60 3.33 -17.28 -12.44 -129.08 -3.29 -16.26 -2.77 -2.75 -8.96 -2.64 -14.23 -31.19 28.68 -0.93 46.82 2.55 -1.00 49.68 4.33 45.08 -64.38 14.78 2.90 56.75 -6.29 -21.84 -21.08 -7.51 
-15.8700 80.5160 191.3380 14.07 -32.32 -173.20 17.98 -2.25 3.55 18.03 -2.24 3.61 -0.18 -0.70 0.26 30.83 -0.87 -52.58 9.59 -10.94 -1.83 -16.96 7.00 -19.95 -0.01 -0.80 0.01 -35.75 -45.74 3.40 -13.83 -15.66 3.33 -15.72 -11.86 -128.36 -3.38 -16.10 -2.19 -2.91 -8.79 -2.07 -14.95 -32.23 28.26 -0.78 43.90 2.32 -1.38 54.23 1.55 45.49 -64.44 14.77 2.92 57.14 -6.32 -21.23 -21.54 -6.98 
-17.3476 80.5795 190.7833 13.13 -33.74 -176.40 17.93 -1.74 3.53 17.98 -1.73 3.59 -0.18 -0.70 0.26 31.74 -3.67 -52.18 9.59 -10.97 -1.83 -15.96 6.76 -21.00 -0.01 -0.80 0.01 -35.39 -46.02 4.19 -13.87 -14.90 3.32 -14.28 -11.39 -127.29 -3.45 -15.90 -1.60 -3.06 -8.59 -1.50 -15.79 -32.90 27.56 -0.62 40.87 2.08 -1.57 57.40 -2.22 45.78 -64.46 14.09 2.98 57.56 -6.36 -20.63 -22.50 -6.82 
-18.8072 80.5118 190.2234 12.11 -35.24 -179.75 17.88 -1.33 3.54 17.93 -1.32 3.60 -0.18 -0.70 0.26 32.61 -6.25 -51.80 9.59 -10.99 -1.83 -15.06 6.62 -21.84 -0.01 -0.80 0.01 -34.69 -46.21 5.17 -13.89 -14.32 3.32 -12.92 -11.06 -125.82 -3.49 -15.72 -1.00 -3.17 -8.40 -0.92 -16.70 -33.51 26.63 -0.49 37.84 1.87 -1.66 59.46 -6.44 46.48 -64.54 13.67 3.04 58.03 -6.41 -20.07 -23.83 -7.02 
-20.2287 80.3328 189.6883 11.04 -36.77 176.87 17.86 -1.04 3.57 17.91 -1.03 3.63 -0.18 -0.70 0.26 33.49 -8.63 -51.52 9.59 -11.03 -1.83 -14.32 6.66 -22.26 -0.01 -0.80 0.01 -33.72 -46.36 6.16 -13.91 -13.86 3.32 -11.57 -10.93 -123.94 -3.52 -15.58 -0.38 -3.28 -8.26 -0.32 -17.61 -34.20 25.56 -0.38 34.94 1.69 -1.72 60.83 -10.42 47.93 -64.68 14.28 3.14 58.63 -6.48 -19.54 -25.37 -7.36 
